<svg width="36" height="36" viewBox="0 0 36 36" fill="none" xmlns="http://www.w3.org/2000/svg">
<path d="M31.3517 28.3846H4.64837C2.4635 28.3846 0.692322 29.9344 0.692322 31.8462C0.692322 33.7579 2.4635 35.3077 4.64837 35.3077H31.3517C33.5365 35.3077 35.3077 33.7579 35.3077 31.8462C35.3077 29.9344 33.5365 28.3846 31.3517 28.3846Z" fill="#E9D5DA"/>
<path d="M31.3517 0.692261H4.64837C2.4635 0.692261 0.692322 2.24204 0.692322 4.1538C0.692322 6.06555 2.4635 7.61534 4.64837 7.61534H31.3517C33.5365 7.61534 35.3077 6.06555 35.3077 4.1538C35.3077 2.24204 33.5365 0.692261 31.3517 0.692261Z" fill="#E9D5DA"/>
<path d="M31.3517 14.5385H4.64837C2.4635 14.5385 0.692322 16.0882 0.692322 18C0.692322 19.9117 2.4635 21.4615 4.64837 21.4615H31.3517C33.5365 21.4615 35.3077 19.9117 35.3077 18C35.3077 16.0882 33.5365 14.5385 31.3517 14.5385Z" fill="#E9D5DA"/>
</svg>
